# xmcd CD database file
#
# Track frame offsets:
#	183
#	12515
#	25120
#	39118
#	53693
#	65963
#	78268
#	90730
#	104100
#	116665
#	131253
#	144423
#	158973
#	173585
#	186660
#	200770
#	215208
#	227388
#
# Disc length: 3194 seconds
#
# Revision: 1
# Processed by: cddbd v1.5.2PL0 Copyright (c) Steve Scherf et al.
# Submitted via: CDex 1.70beta2
#
DISCID=fe0c7812
DTITLE=Johnny Dodds - I 16 - Johnny Dodds (The myth of New Orleans)
DYEAR=1900
DGENRE=Jazz
TTITLE0=Carpet Alley-Breakdown
TTITLE1=New Orleans Stomp
TTITLE2=Weary Way Blues
TTITLE3=After you've gone
TTITLE4=Ballin' the jack
TTITLE5=Grandma's Ball
TTITLE6=Oriental Man
TTITLE7=My baby
TTITLE8=Lady Love
TTITLE9=Blus Clarinet Stomp
TTITLE10=Bull fiddle blues
TTITLE11=Bucktown Stomp
TTITLE12=Heah' me talkin'
TTITLE13=Pencil Papa
TTITLE14=Indigo Stomp
TTITLE15=Wild man Blues
TTITLE16=Melancholy
TTITLE17=Gravier street Stomp
EXTD=
EXTT0=
EXTT1=
EXTT2=
EXTT3=
EXTT4=
EXTT5=
EXTT6=
EXTT7=
EXTT8=
EXTT9=
EXTT10=
EXTT11=
EXTT12=
EXTT13=
EXTT14=
EXTT15=
EXTT16=
EXTT17=
PLAYORDER=
